<?xml version="1.0" encoding="UTF-8"?>
<svg version="1.1" xmlns="http://www.w3.org/2000/svg" width="500" height="500">
<path d="M0 0 C165 0 330 0 500 0 C500 165 500 330 500 500 C335 500 170 500 0 500 C0 335 0 170 0 0 Z " fill="#FEFEFE" transform="translate(0,0)"/>
<path d="M0 0 C2.32359204 0.01067092 4.6464029 0.0000864 6.9699707 -0.01269531 C19.62853538 -0.02774088 30.96745829 1.42711163 42.90161133 5.88574219 C43.85197266 6.23765625 44.80233398 6.58957031 45.78149414 6.95214844 C57.87182614 11.56345932 68.25397283 17.71351291 78.02661133 26.26074219 C78.9934082 27.08316406 79.96020508 27.90558594 80.95629883 28.75292969 C102.02950164 47.0446583 116.84048969 74.2571436 119.02661133 102.26074219 C120.45212245 135.38637204 114.31428592 163.03051179 93.02661133 189.26074219 C92.36661133 189.92074219 91.70661133 190.58074219 91.02661133 191.26074219 C91.02661133 192.25074219 91.02661133 193.24074219 91.02661133 194.26074219 C93.62956409 195.57569761 96.23389166 196.88779205 98.83911133 198.19824219 C99.57709961 198.57142578 100.31508789 198.94460938 101.07543945 199.32910156 C101.78764648 199.68681641 102.49985352 200.04453125 103.23364258 200.41308594 C103.88824463 200.74300537 104.54284668 201.0729248 105.21728516 201.4128418 C109.22427947 203.29063039 112.83514311 203.54202405 117.21411133 203.82324219 C118.48641602 203.90703125 119.7587207 203.99082031 121.06958008 204.07714844 C122.04540039 204.13773438 123.0212207 204.19832031 124.02661133 204.26074219 C124.02661133 204.92074219 124.02661133 205.58074219 124.02661133 206.26074219 C112.88587945 209.97431948 99.95340068 209.44393547 89.02661133 205.26074219 C88.36918945 204.85855469 87.71176758 204.45636719 87.03442383 204.04199219 C84.81475038 202.75255533 83.61076618 202.19115094 81.02661133 202.26074219 C78.39329823 203.90607666 76.07124551 205.76784712 73.70092773 207.76831055 C48.75565235 228.50263397 16.88800348 232.39164234 -14.39135742 229.98730469 C-39.7168447 226.89811982 -62.13260615 212.82472837 -79.97338867 195.26074219 C-80.75327148 194.50535156 -81.5331543 193.74996094 -82.33666992 192.97167969 C-93.38116038 181.55446219 -100.77817592 167.13470746 -105.97338867 152.26074219 C-106.28791992 151.40996094 -106.60245117 150.55917969 -106.92651367 149.68261719 C-110.95536891 138.3860231 -111.4167951 127.20298121 -111.41088867 115.32324219 C-111.4112915 114.4968222 -111.41169434 113.67040222 -111.41210938 112.81893921 C-111.37697678 100.33187571 -110.69369245 88.96068765 -105.97338867 77.26074219 C-105.67867676 76.49826172 -105.38396484 75.73578125 -105.08032227 74.95019531 C-93.45872757 45.3371875 -71.12786345 21.17680912 -41.97338867 8.26074219 C-36.08500872 5.92089232 -30.07567663 3.95982459 -23.97338867 2.26074219 C-23.33892822 2.06496582 -22.70446777 1.86918945 -22.05078125 1.66748047 C-14.83798138 -0.29451232 -7.41465164 -0.04045346 0 0 Z " fill="#FDFDFD" transform="translate(245.973388671875,134.7392578125)"/>
<path d="M0 0 C2.32359204 0.01067092 4.6464029 0.0000864 6.9699707 -0.01269531 C19.62853538 -0.02774088 30.96745829 1.42711163 42.90161133 5.88574219 C43.85197266 6.23765625 44.80233398 6.58957031 45.78149414 6.95214844 C57.87182614 11.56345932 68.25397283 17.71351291 78.02661133 26.26074219 C78.9934082 27.08316406 79.96020508 27.90558594 80.95629883 28.75292969 C102.02950164 47.0446583 116.84048969 74.2571436 119.02661133 102.26074219 C120.45212245 135.38637204 114.31428592 163.03051179 93.02661133 189.26074219 C92.36661133 189.92074219 91.70661133 190.58074219 91.02661133 191.26074219 C91.02661133 192.25074219 91.02661133 193.24074219 91.02661133 194.26074219 C93.62956409 195.57569761 96.23389166 196.88779205 98.83911133 198.19824219 C99.57709961 198.57142578 100.31508789 198.94460938 101.07543945 199.32910156 C101.78764648 199.68681641 102.49985352 200.04453125 103.23364258 200.41308594 C103.88824463 200.74300537 104.54284668 201.0729248 105.21728516 201.4128418 C109.22427947 203.29063039 112.83514311 203.54202405 117.21411133 203.82324219 C118.48641602 203.90703125 119.7587207 203.99082031 121.06958008 204.07714844 C122.04540039 204.13773438 123.0212207 204.19832031 124.02661133 204.26074219 C124.02661133 204.92074219 124.02661133 205.58074219 124.02661133 206.26074219 C112.88587945 209.97431948 99.95340068 209.44393547 89.02661133 205.26074219 C88.36918945 204.85855469 87.71176758 204.45636719 87.03442383 204.04199219 C84.81475038 202.75255533 83.61076618 202.19115094 81.02661133 202.26074219 C78.39329823 203.90607666 76.07124551 205.76784712 73.70092773 207.76831055 C48.75565235 228.50263397 16.88800348 232.39164234 -14.39135742 229.98730469 C-39.7168447 226.89811982 -62.13260615 212.82472837 -79.97338867 195.26074219 C-80.75327148 194.50535156 -81.5331543 193.74996094 -82.33666992 192.97167969 C-93.38116038 181.55446219 -100.77817592 167.13470746 -105.97338867 152.26074219 C-106.28791992 151.40996094 -106.60245117 150.55917969 -106.92651367 149.68261719 C-110.95536891 138.3860231 -111.4167951 127.20298121 -111.41088867 115.32324219 C-111.4112915 114.4968222 -111.41169434 113.67040222 -111.41210938 112.81893921 C-111.37697678 100.33187571 -110.69369245 88.96068765 -105.97338867 77.26074219 C-105.67867676 76.49826172 -105.38396484 75.73578125 -105.08032227 74.95019531 C-93.45872757 45.3371875 -71.12786345 21.17680912 -41.97338867 8.26074219 C-36.08500872 5.92089232 -30.07567663 3.95982459 -23.97338867 2.26074219 C-23.33892822 2.06496582 -22.70446777 1.86918945 -22.05078125 1.66748047 C-14.83798138 -0.29451232 -7.41465164 -0.04045346 0 0 Z M-29.97338867 11.26074219 C-31.22120117 11.67324219 -32.46901367 12.08574219 -33.75463867 12.51074219 C-49.00530463 17.88282362 -61.58687127 26.97634602 -72.97338867 38.26074219 C-73.72233398 38.96070313 -74.4712793 39.66066406 -75.24291992 40.38183594 C-80.29067259 45.17864871 -84.21414996 50.41208606 -87.97338867 56.26074219 C-88.54959961 57.13085938 -89.12581055 58.00097656 -89.71948242 58.89746094 C-104.98831702 83.27998746 -108.4785751 112.14608532 -102.5168457 139.99511719 C-95.97278711 167.27672712 -78.79722038 192.41538638 -54.78295898 207.20507812 C-49.02614247 210.56347999 -43.02518664 213.47683459 -36.97338867 216.26074219 C-35.83772461 216.78539062 -34.70206055 217.31003906 -33.53198242 217.85058594 C-12.61145057 226.14071985 14.88860129 226.808352 36.02661133 219.26074219 C37.35299087 218.83098594 38.67983045 218.40264746 40.00708008 217.97558594 C52.5523145 213.76633952 64.3891233 207.42810885 74.02661133 198.26074219 C72.7763818 194.51005359 71.26274257 193.65798779 68.15161133 191.26074219 C59.92724481 184.69192997 52.61028802 177.29164626 45.76879883 169.28808594 C43.72567372 166.91054797 41.62894918 164.58605526 39.52661133 162.26074219 C36.89480688 159.34585289 34.28374207 156.41801008 31.71411133 153.44824219 C28.04286777 149.22930728 24.23417406 145.14134107 20.43188477 141.04101562 C17.18323973 137.53166428 14.00115415 133.97698216 10.87426758 130.35839844 C7.97856893 127.07089278 5.0001407 123.85860476 2.02050781 120.6472168 C-0.27787572 118.15865672 -2.50300069 115.63651554 -4.64135742 113.01074219 C-6.93615893 110.3046446 -8.80271745 108.80323089 -11.97338867 107.26074219 C-12.63338867 107.26074219 -13.29338867 107.26074219 -13.97338867 107.26074219 C-13.97338867 106.60074219 -13.97338867 105.94074219 -13.97338867 105.26074219 C-12.88541992 105.30714844 -11.79745117 105.35355469 -10.67651367 105.40136719 C0.81513349 105.7476908 10.68146211 105.1300664 20.02661133 97.63574219 C26.77204828 90.93927392 28.38676564 84.07129805 28.52661133 74.82324219 C28.39470654 64.60397465 25.91258355 56.76118498 19.19848633 48.91699219 C11.61199732 43.13161208 3.12767102 43.89942175 -5.97338867 44.07324219 C-7.33405093 44.08831743 -8.69472936 44.10200081 -10.05541992 44.11425781 C-13.3618271 44.14943236 -16.66739551 44.1986593 -19.97338867 44.26074219 C-20.11369543 59.65537337 -20.21942639 75.04995657 -20.2842617 90.44507694 C-20.31516939 97.59372931 -20.35728962 104.74198387 -20.42602539 111.89038086 C-20.48592347 118.12265703 -20.5245603 124.35464504 -20.53791964 130.58720106 C-20.54572638 133.8859834 -20.5671758 137.18375168 -20.60776901 140.48231697 C-20.65133873 144.16945346 -20.65732204 147.85488375 -20.65454102 151.54223633 C-20.67611267 152.62980728 -20.69768433 153.71737823 -20.71990967 154.83790588 C-20.66912139 161.06272609 -19.90147319 164.55899586 -15.45725441 169.04381466 C-12.11101999 171.78808234 -9.17896119 171.33862316 -4.97338867 171.26074219 C-4.97338867 171.92074219 -4.97338867 172.58074219 -4.97338867 173.26074219 C-18.83338867 173.26074219 -32.69338867 173.26074219 -46.97338867 173.26074219 C-46.97338867 172.60074219 -46.97338867 171.94074219 -46.97338867 171.26074219 C-45.75651367 171.19886719 -44.53963867 171.13699219 -43.28588867 171.07324219 C-38.79955403 170.53233659 -36.82574126 168.8045742 -33.97338867 165.26074219 C-32.77006888 162.8541026 -32.83978099 161.33858498 -32.82621765 158.65007019 C-32.81906235 157.67850479 -32.81190704 156.70693939 -32.80453491 155.70593262 C-32.80184601 154.63629272 -32.7991571 153.56665283 -32.79638672 152.46459961 C-32.78981552 151.34092484 -32.78324432 150.21725006 -32.776474 149.05952454 C-32.75670832 145.32841939 -32.74507169 141.59735453 -32.73510742 137.86621094 C-32.73103189 136.59450861 -32.72695637 135.32280628 -32.72275734 134.01256752 C-32.70403766 127.97748464 -32.68947442 121.94242628 -32.68114537 115.90732211 C-32.67137329 108.9416564 -32.6450551 101.97630849 -32.60464448 95.01075476 C-32.57084299 88.97727374 -32.55900016 82.94394699 -32.55494118 76.91036415 C-32.5500608 74.34388383 -32.53840587 71.77740726 -32.51990318 69.210989 C-32.49563539 65.62208943 -32.49645453 62.03402433 -32.50341797 58.44506836 C-32.49060791 57.38150116 -32.47779785 56.31793396 -32.46459961 55.22213745 C-32.49348318 49.38100544 -32.49348318 49.38100544 -34.88557434 44.14375305 C-38.91197954 40.51231676 -41.54417021 40.01395953 -46.97338867 40.26074219 C-46.97338867 39.60074219 -46.97338867 38.94074219 -46.97338867 38.26074219 C-39.28836721 38.34542126 -31.60353042 38.44040955 -23.91880035 38.54826927 C-20.34979579 38.59804459 -16.78081817 38.64437485 -13.21166992 38.68261719 C-9.76207554 38.7197089 -6.31271739 38.76613055 -2.86332703 38.81880569 C-0.91820045 38.84613783 1.02705175 38.86400637 2.97229004 38.88168335 C14.1271995 39.06628859 23.75570828 40.53608505 32.26879883 48.30761719 C40.67969636 57.24227024 41.78680361 65.59315589 41.42895508 77.48730469 C40.69371488 89.05416759 35.53870944 97.60427959 27.02661133 105.26074219 C22.00842183 109.2906668 16.2455344 110.30975999 10.02661133 111.26074219 C14.91700084 117.02889392 19.95635683 122.65056042 25.02661133 128.26074219 C26.48509235 129.88560964 27.94342619 131.5106092 29.40161133 133.13574219 C34.11143665 138.36888143 38.86919334 143.55739772 43.63256836 148.74169922 C44.98338635 150.21364135 46.33122106 151.68831955 47.67895508 153.16308594 C49.95298042 155.65082291 52.23148935 158.13423865 54.51391602 160.61425781 C55.57108267 161.76492468 56.6262625 162.91741866 57.67993164 164.07128906 C63.83263763 170.80417681 70.03419793 177.47919626 76.65161133 183.76074219 C77.59262695 184.65792969 78.53364258 185.55511719 79.50317383 186.47949219 C81.78862157 188.50851508 81.78862157 188.50851508 84.02709961 188.0480957 C87.45150266 186.69965861 89.20597835 183.60424094 91.27661133 180.69824219 C91.7582373 180.02857422 92.23986328 179.35890625 92.73608398 178.66894531 C105.71305619 160.13657053 112.41701188 139.49023184 112.27661133 116.88574219 C112.2843457 115.64824219 112.29208008 114.41074219 112.30004883 113.13574219 C112.23793231 83.6303952 100.7404502 58.18060217 80.40161133 37.13574219 C57.9876115 14.89708004 30.08039298 6.92224392 -0.75634766 6.94384766 C-10.99780245 7.0071401 -20.26832977 7.88506953 -29.97338867 11.26074219 Z " fill="#080808" transform="translate(245.973388671875,134.7392578125)"/>
</svg>
